<?xml version="1.0" encoding="UTF-8" standalone="no"?><!DOCTYPE svg PUBLIC "-//W3C//DTD SVG 1.1//EN"
        "http://www.w3.org/Graphics/SVG/1.1/DTD/svg11.dtd">
<svg width="100%" height="100%" viewBox="0 0 4125 2849" version="1.1" xmlns="http://www.w3.org/2000/svg"
     xmlns:xlink="http://www.w3.org/1999/xlink" xml:space="preserve" xmlns:serif="http://www.serif.com/"
     style="fill-rule:evenodd;clip-rule:evenodd;stroke-linejoin:round;stroke-miterlimit:2;">
    <g id="Layer2">
        <path d="M1337.23,1440.25l-90.659,-251.147c-10.073,-27.336 -20.566,-44.42 -31.479,-51.254c-10.913,-6.834 -33.158,-10.251 -66.735,-10.251l-448.26,0c-33.578,0 -56.663,5.98 -69.254,17.939c-12.592,11.959 -28.961,44.42 -49.107,97.383l-73.031,197.33c-6.716,18.793 -10.074,36.732 -10.074,53.817c0,54.671 32.738,82.007 98.215,82.007c16.788,0 40.712,-1.709 71.772,-5.126c31.059,-3.416 54.143,-5.125 69.253,-5.125c68.834,0 103.251,29.898 103.251,89.695c0,56.38 -37.775,84.57 -113.324,84.57c-13.431,0 -31.899,-1.708 -55.403,-5.125l-125.916,-17.939c-23.504,-3.417 -62.118,-5.126 -115.842,-5.126c-58.761,0 -99.893,1.709 -123.398,5.126l-105.769,15.376c-47.008,6.834 -81.425,10.251 -103.251,10.251c-65.476,0 -98.214,-28.19 -98.214,-84.57c0,-59.797 31.899,-89.695 95.696,-89.695c13.431,0 23.504,0.854 30.22,2.562l32.738,0c45.33,0 79.746,-17.939 103.251,-53.817c10.073,-13.667 26.862,-53.817 50.366,-120.448l468.407,-1289.05c26.862,-71.756 79.746,-107.634 158.654,-107.634c77.228,0 128.434,35.878 153.617,107.634l450.778,1271.11c28.541,80.299 54.564,133.262 78.068,158.889c23.504,25.627 57.082,38.441 100.732,38.441c13.431,0 23.505,-0.854 30.22,-2.563c47.009,-3.417 70.513,-5.125 70.513,-5.125c63.797,0 95.696,27.335 95.696,82.007c0,58.088 -31.899,87.132 -95.696,87.132c-18.468,0 -42.811,-1.708 -73.031,-5.125c-105.769,-11.96 -184.676,-17.939 -236.722,-17.939c-62.118,0 -162.851,6.834 -302.197,20.502c-35.257,3.417 -62.119,5.125 -80.587,5.125c-67.155,0 -100.732,-29.044 -100.732,-87.132c0,-58.089 36.935,-87.133 110.806,-87.133c15.11,0 37.355,1.709 66.735,5.125c29.38,3.417 51.626,5.126 66.735,5.126c55.403,0 83.105,-23.065 83.105,-69.194c0,-6.833 -6.716,-29.044 -20.147,-66.63Zm-181.318,-522.795l-226.649,-707.311l-231.685,707.311c-3.357,10.251 -5.036,16.23 -5.036,17.939c0,15.376 12.591,23.064 37.774,23.064l400.412,0c20.147,0 30.22,-6.834 30.22,-20.501c0,-3.417 -1.679,-10.251 -5.036,-20.502Z"
              style="fill:#586f9a;fill-rule:nonzero;"/>
        <path
                d="M2241.3,1773.4c-43.65,0 -80.586,-15.803 -110.805,-47.41c-30.22,-31.607 -45.33,-69.621 -45.33,-114.041c0,-44.42 15.11,-82.434 45.33,-114.041c30.219,-31.607 67.155,-47.41 110.805,-47.41c43.651,0 80.586,15.803 110.806,47.41c30.22,31.607 45.33,69.621 45.33,114.041c0,44.42 -15.11,82.434 -45.33,114.041c-30.22,31.607 -67.155,47.41 -110.806,47.41Z"
                style="fill:#586f9a;fill-rule:nonzero;"/>
        <path
                d="M2961.54,361.344c0,-126.428 -42.811,-189.642 -128.434,-189.642c-23.504,0 -41.132,1.709 -52.884,5.126c-26.862,5.125 -49.527,7.688 -67.995,7.688c-21.825,0 -40.293,-8.115 -55.403,-24.346c-15.11,-16.231 -22.664,-36.305 -22.664,-60.224c0,-59.797 35.256,-89.695 105.769,-89.695c1.679,0 14.27,0.854 37.774,2.563c251.832,17.084 369.353,25.627 352.565,25.627l25.183,0l606.914,-17.939c11.752,0 55.403,-2.563 130.952,-7.688c26.862,-1.709 51.206,-2.563 73.031,-2.563c87.302,0 130.953,39.295 130.953,117.885c0,13.668 -3.358,57.234 -10.074,130.699c-5.036,54.671 -7.555,105.071 -7.555,151.2c0,59.797 1.679,101.655 5.037,125.574c6.715,49.545 10.073,86.278 10.073,110.196c0,64.923 -30.22,97.384 -90.659,97.384c-60.44,0 -90.659,-45.275 -90.659,-135.824l0,-133.262c0,-143.512 -29.381,-228.082 -88.141,-253.709c-43.651,-18.793 -156.136,-28.19 -337.455,-28.19c-119.2,0 -189.713,2.563 -211.538,7.688c-72.192,18.793 -108.288,70.048 -108.288,153.763l0,171.703c-1.679,23.918 -2.518,41.003 -2.518,51.254l0,33.315c0,68.34 15.11,107.635 45.33,117.886c11.752,3.416 31.898,5.125 60.439,5.125l103.251,0c105.769,0 158.654,-36.732 158.654,-110.197c0,-20.502 -2.518,-46.983 -7.555,-79.444c-5.037,-32.461 -7.555,-61.506 -7.555,-87.133c0,-68.339 30.22,-102.509 90.659,-102.509c60.44,0 90.66,36.733 90.66,110.197c0,13.668 -5.876,66.631 -17.628,158.889c-10.074,78.59 -15.11,147.784 -15.11,207.58c0,34.17 3.357,94.821 10.073,181.953c1.679,13.668 5.876,43.567 12.592,89.696c5.036,37.586 7.554,67.485 7.554,89.695c0,61.505 -30.219,92.258 -90.659,92.258c-58.761,0 -88.141,-35.878 -88.141,-107.634c0,-18.794 2.099,-46.129 6.296,-82.007c4.197,-35.879 6.296,-63.214 6.296,-82.008c0,-73.464 -47.848,-110.196 -143.544,-110.196l-113.324,0c-48.688,0 -78.488,8.542 -89.401,25.627c-10.912,17.085 -16.369,53.817 -16.369,110.197l0,158.888c0,27.336 0.84,64.068 2.519,110.197c1.678,56.38 2.518,93.967 2.518,112.76c1.679,68.339 15.11,111.051 40.293,128.136c18.468,11.959 62.118,17.939 130.952,17.939l342.491,0c99.054,0 167.048,-14.949 203.984,-44.848c36.935,-29.898 55.403,-85.851 55.403,-167.858c0,-25.627 -1.26,-63.641 -3.778,-114.041c-2.518,-50.4 -3.777,-88.414 -3.777,-114.041c0,-76.881 30.219,-115.322 90.659,-115.322c63.797,0 95.696,39.295 95.696,117.885c0,30.753 -1.679,77.736 -5.037,140.949c-3.357,63.214 -5.036,110.197 -5.036,140.95c0,23.919 1.259,59.37 3.777,106.353c2.519,46.983 3.778,82.434 3.778,106.353c0,80.298 -38.614,120.448 -115.843,120.448c-18.467,0 -47.848,-1.709 -88.141,-5.126c-20.146,-1.708 -57.082,-2.562 -110.806,-2.562c11.752,0 -53.724,-1.709 -196.428,-5.126c-142.705,-3.417 -266.102,-5.125 -370.193,-5.125c-157.814,0 -312.271,5.125 -463.37,15.376c-6.715,0 -14.27,0.854 -22.664,2.563l-15.11,0c-70.513,0 -105.769,-30.753 -105.769,-92.258c0,-54.672 26.022,-82.007 78.067,-82.007c8.395,0 31.059,1.708 67.995,5.125c18.467,5.126 36.096,7.688 52.884,7.688c85.623,0 128.434,-64.068 128.434,-192.204l0,-1027.65Z"
                style="fill:#586f9a;fill-rule:nonzero;"/>
        <rect x="22.532" y="1898.4" width="3254.94" height="950"
              style="fill:#586f9a;"/>
        <circle cx="3712.5" cy="2360.9" r="387.5"
                style="fill:#f82942;"/>
    </g>
</svg>